# xmcd
#
# Track frame offsets: 
#        150
#        14605
#        30492
#        48402
#        62505
#        78400
#        95797
#        108155
#        121020
#        133467
#        147887
#        164360
#        181952
#        197905
#        213192
#        229167
#
# Disc length: 3259 seconds
#
# Revision: 1
# Processed by: cddbd v1.5.1PL0 Copyright (c) Steve Scherf et al.
# Submitted via: ExactAudioCopy v0.95a5
#
DISCID=dd0cb910
DTITLE=Pam Tillis - Country Legends
DYEAR=2002
DGENRE=Country
TTITLE0=Don't Tell Me What To Do
TTITLE1=One Of Those Things
TTITLE2=Maybe It Was Memphis
TTITLE3=Shake The Sugar Tree
TTITLE4=Let That Pony Run
TTITLE5=Spilled Perfume
TTITLE6=When You Walk In The Room
TTITLE7=Mi Vida Loca (My Crazy Life)
TTITLE8=I Was Blown Away
TTITLE9=Fine, Fine Very Fine Love
TTITLE10=Sweetheart's Dance
TTITLE11=Betty's Got A Bass Boat
TTITLE12=Land Of The Living
TTITLE13=It's Lonely Out There
TTITLE14=You Can't Have A Good Time Without Me
TTITLE15=Mandolin Rain
EXTD=
EXTT0=
EXTT1=
EXTT2=
EXTT3=
EXTT4=
EXTT5=
EXTT6=
EXTT7=
EXTT8=
EXTT9=
EXTT10=
EXTT11=
EXTT12=
EXTT13=
EXTT14=
EXTT15=
PLAYORDER=
